<svg width="24" height="24" viewBox="0 0 24 24" fill="none" xmlns="http://www.w3.org/2000/svg">
<path fill-rule="evenodd" clip-rule="evenodd" d="M21.5099 2.57996C20.9487 2.0233 20.1904 1.71065 19.3999 1.70996C18.7152 1.71219 18.0518 1.94861 17.5199 2.37996L8.14992 9.99996L7.99992 10.15C6.69395 11.4447 6.40424 13.4483 7.28992 15.06C6.92656 14.9491 6.54972 14.8885 6.16992 14.88C3.96078 14.88 2.16992 16.6708 2.16992 18.88V21.38C2.16992 22.2084 2.84149 22.88 3.66992 22.88H6.16992C7.55853 22.8723 8.84384 22.1451 9.56546 20.9587C10.2871 19.7723 10.3418 18.2965 9.70992 17.06C10.1096 17.1949 10.5281 17.2658 10.9499 17.27C12.0575 17.2774 13.1211 16.8375 13.8999 16.05L13.9999 15.94L21.6699 6.56996C22.6381 5.39247 22.5692 3.67615 21.5099 2.57996ZM6.20992 21.38H3.70992V18.88C3.70992 17.4992 4.82921 16.38 6.20992 16.38C7.59063 16.38 8.70992 17.4992 8.70992 18.88C8.70992 20.2607 7.59063 21.38 6.20992 21.38ZM12.8799 15L20.5499 5.61996C21.0201 5.03105 20.9727 4.18291 20.4398 3.65006C19.907 3.11721 19.0588 3.06981 18.4699 3.53996L9.09992 11.21C8.05334 12.2538 8.0511 13.9484 9.09492 14.995C10.1387 16.0415 11.8333 16.0438 12.8799 15Z" fill="black"/>
<path d="M13.1999 9.82996L10.1999 12.83C9.90747 13.1228 9.90747 13.5971 10.1999 13.89C10.4927 14.1824 10.9671 14.1824 11.2599 13.89L14.2599 10.89C14.4606 10.703 14.5432 10.4214 14.4753 10.1557C14.4074 9.88994 14.1999 9.68244 13.9342 9.61458C13.6685 9.54671 13.3869 9.62931 13.1999 9.82996Z" fill="black"/>
</svg>
