<svg width="24" height="24" viewBox="0 0 24 24" fill="none" xmlns="http://www.w3.org/2000/svg">
<path fill-rule="evenodd" clip-rule="evenodd" d="M12.75 8.75H20C21.6569 8.75 23 10.0931 23 11.75V17.75C23 19.4069 21.6569 20.75 20 20.75H4C2.34315 20.75 1 19.4069 1 17.75V11.75C1 10.0931 2.34315 8.75 4 8.75H11.25V6.75C11.25 5.7835 12.0335 5 13 5C13.1381 5 13.25 4.88807 13.25 4.75C13.25 4.33579 13.5858 4 14 4C14.4142 4 14.75 4.33579 14.75 4.75C14.7337 5.70641 13.9565 6.4747 13 6.48C12.9301 6.47978 12.8633 6.50884 12.8158 6.56015C12.7683 6.61145 12.7444 6.6803 12.75 6.75V8.75ZM20 19.25C20.8284 19.25 21.5 18.5784 21.5 17.75V11.75C21.4837 10.9333 20.8169 10.2798 20 10.28H4C3.18315 10.2798 2.51634 10.9333 2.5 11.75V17.75C2.5 18.5784 3.17157 19.25 4 19.25H20Z" fill="black"/>
<path d="M9 14.02H7.75V12.75C7.75 12.3358 7.41421 12 7 12C6.58579 12 6.25 12.3358 6.25 12.75V14H5C4.58579 14 4.25 14.3358 4.25 14.75C4.25 15.1642 4.58579 15.5 5 15.5H6.25V16.75C6.25 17.1642 6.58579 17.5 7 17.5C7.41421 17.5 7.75 17.1642 7.75 16.75V15.52H9C9.41421 15.52 9.75 15.1842 9.75 14.77C9.75 14.3558 9.41421 14.02 9 14.02Z" fill="black"/>
<path d="M17 12.77C17 13.3223 16.5523 13.77 16 13.77C15.4477 13.77 15 13.3223 15 12.77C15 12.2177 15.4477 11.77 16 11.77C16.5523 11.77 17 12.2177 17 12.77Z" fill="black"/>
<path d="M17 16.77C17 17.3223 16.5523 17.77 16 17.77C15.4477 17.77 15 17.3223 15 16.77C15 16.2177 15.4477 15.77 16 15.77C16.5523 15.77 17 16.2177 17 16.77Z" fill="black"/>
<path d="M19 14.77C19 15.3223 18.5523 15.77 18 15.77C17.4477 15.77 17 15.3223 17 14.77C17 14.2177 17.4477 13.77 18 13.77C18.5523 13.77 19 14.2177 19 14.77Z" fill="black"/>
<path d="M15 14.77C15 15.3223 14.5523 15.77 14 15.77C13.4477 15.77 13 15.3223 13 14.77C13 14.2177 13.4477 13.77 14 13.77C14.5523 13.77 15 14.2177 15 14.77Z" fill="black"/>
</svg>
