<svg width="40" height="40" viewBox="0 0 40 40" fill="none" xmlns="http://www.w3.org/2000/svg">
<rect x="1" y="1" width="38" height="38" rx="19" stroke="black" stroke-width="2"/>
<path d="M29.6875 12.875C29.6489 11.7053 29.0364 10.6298 28.05 10C26.7155 9.13166 25.0429 8.96393 23.5625 9.55L17.875 11.7625C16.4307 12.2715 15.4411 13.6076 15.375 15.1375V24.2875C14.8751 24.0209 14.3165 23.8834 13.75 23.8875C12.3383 23.8875 11.0659 24.7386 10.5268 26.0433C9.98774 27.348 10.2884 28.849 11.2884 29.8455C12.2884 30.8419 13.7905 31.1372 15.0933 30.5934C16.3961 30.0497 17.2426 28.7742 17.2375 27.3625C17.2428 27.2959 17.2428 27.2291 17.2375 27.1625V15.1375C17.3104 14.3711 17.8386 13.7245 18.575 13.5L24.25 11.25C25.158 10.8973 26.1798 10.9995 27 11.525C27.4807 11.8156 27.7853 12.3264 27.8125 12.8875V21.975C27.3145 21.7007 26.756 21.5546 26.1875 21.55C24.2815 21.5387 22.7196 23.0597 22.6801 24.9653C22.6407 26.8709 24.1385 28.4552 26.0433 28.5228C27.9481 28.5903 29.5543 27.1161 29.65 25.2125C29.6558 25.1543 29.6558 25.0957 29.65 25.0375L29.6875 12.875Z" fill="black"/>
</svg>
