<svg width="24" height="25" viewBox="0 0 24 25" fill="none" xmlns="http://www.w3.org/2000/svg">
<path d="M20.05 11.97L13.05 4.97C12.8571 4.78243 12.5787 4.71204 12.3198 4.78533C12.0609 4.85863 11.8608 5.06447 11.7948 5.32533C11.7289 5.58619 11.8071 5.86243 12 6.05L17.71 11.75H4.47998C4.06577 11.75 3.72998 12.0858 3.72998 12.5C3.72998 12.9142 4.06577 13.25 4.47998 13.25H17.7L12 18.95C11.857 19.0893 11.7764 19.2804 11.7764 19.48C11.7764 19.6796 11.857 19.8707 12 20.01C12.1378 20.1546 12.3302 20.2345 12.53 20.23C12.729 20.2309 12.9201 20.1516 13.06 20.01L20.06 13.01C20.3524 12.7172 20.3524 12.2428 20.06 11.95L20.05 11.97Z" fill="black"/>
</svg>
