<svg width="25" height="25" viewBox="0 0 25 25" fill="none" xmlns="http://www.w3.org/2000/svg">
<path d="M11.1705 20.0201C11.3138 20.1553 11.5035 20.2304 11.7005 20.2301C11.8968 20.2318 12.085 20.1521 12.2205 20.0101C12.3635 19.8708 12.4441 19.6797 12.4441 19.4801C12.4441 19.2805 12.3635 19.0894 12.2205 18.9501L6.52045 13.25H19.7407C20.1549 13.25 20.4907 12.9142 20.4907 12.5C20.4907 12.0858 20.1549 11.75 19.7407 11.75H6.51826L12.2305 6.02006C12.3735 5.88077 12.4541 5.68965 12.4541 5.49006C12.4541 5.29048 12.3735 5.09935 12.2305 4.96006C11.9377 4.66761 11.4633 4.66761 11.1705 4.96006L4.17051 11.9601C3.87806 12.2529 3.87806 12.7272 4.17051 13.0201L11.1705 20.0201Z" fill="black"/>
</svg>
